<svg viewBox="0 0 60 60" xmlns="http://www.w3.org/2000/svg"><g stroke="#01f5dc" stroke-width="2" fill="none" fill-rule="evenodd" class="stroke-000000"><path d="M55 31.2c0 11.056-7.139 20.434-17.042 23.754-1.267.245-1.714-.535-1.714-1.205 0-.821.031-3.523.031-6.87 0-2.337-.8-3.864-1.694-4.633 5.554-.624 11.389-2.738 11.389-12.355 0-2.733-.966-4.973-2.567-6.723.26-.634 1.112-3.175-.249-6.625 0 0-2.089-.67-6.848 2.567-1.99-.556-4.125-.832-6.245-.842-2.12.01-4.255.286-6.245.842-4.759-3.237-6.858-2.567-6.858-2.567-1.356 3.45-.499 5.99-.239 6.625-1.601 1.75-2.572 3.99-2.572 6.723 0 9.59 5.824 11.742 11.363 12.37-.712.629-1.356 1.73-1.585 3.346-1.424.645-5.035 1.75-7.258-2.078 0 0-1.32-2.4-3.819-2.577 0 0-2.437-.031-.172 1.522 0 0 1.637.769 2.77 3.658 0 0 1.46 4.874 8.401 3.357.01 2.093.031 3.668.031 4.26 0 .665-.452 1.434-1.699 1.205A25.026 25.026 0 0 1 5.122 31.2c0-13.831 11.165-25.038 24.939-25.038C43.835 6.162 55 17.369 55 31.2Z"></path><path d="M55 59H5a4 4 0 0 1-4-4V5a4 4 0 0 1 4-4h50a4 4 0 0 1 4 4v50a4 4 0 0 1-4 4Z" stroke-linejoin="round"></path></g></svg>