<svg id="visual" viewBox="0 0 960 150" width="960" height="150" xmlns="http://www.w3.org/2000/svg" xmlns:xlink="http://www.w3.org/1999/xlink" version="1.1"><rect x="0" y="0" width="960" height="150" fill="#e3edf7"></rect><path d="M0 113L87 124L175 97L262 94L349 117L436 101L524 124L611 99L698 100L785 110L873 113L960 113L960 0L873 0L785 0L698 0L611 0L524 0L436 0L349 0L262 0L175 0L87 0L0 0Z" fill="#e3edf7"></path><path d="M0 68L87 80L175 86L262 98L349 85L436 90L524 71L611 100L698 69L785 99L873 99L960 100L960 0L873 0L785 0L698 0L611 0L524 0L436 0L349 0L262 0L175 0L87 0L0 0Z" fill="#a6b2c1"></path><path d="M0 59L87 79L175 68L262 55L349 78L436 57L524 55L611 62L698 72L785 63L873 53L960 58L960 0L873 0L785 0L698 0L611 0L524 0L436 0L349 0L262 0L175 0L87 0L0 0Z" fill="#6e7a8d"></path><path d="M0 29L87 46L175 54L262 30L349 46L436 51L524 45L611 54L698 47L785 32L873 41L960 36L960 0L873 0L785 0L698 0L611 0L524 0L436 0L349 0L262 0L175 0L87 0L0 0Z" fill="#3a475c"></path><path d="M0 24L87 18L175 29L262 15L349 15L436 16L524 22L611 15L698 16L785 29L873 21L960 30L960 0L873 0L785 0L698 0L611 0L524 0L436 0L349 0L262 0L175 0L87 0L0 0Z" fill="#0a192f"></path></svg>