<svg id="visual" viewBox="0 0 960 150" width="960" height="150" xmlns="http://www.w3.org/2000/svg" xmlns:xlink="http://www.w3.org/1999/xlink" version="1.1"><rect x="0" y="0" width="960" height="150" fill="#e3edf7"></rect><path d="M0 35L87 24L175 51L262 54L349 31L436 47L524 24L611 49L698 48L785 38L873 35L960 35L960 151L873 151L785 151L698 151L611 151L524 151L436 151L349 151L262 151L175 151L87 151L0 151Z" fill="#e3edf7"></path><path d="M0 80L87 68L175 62L262 50L349 63L436 58L524 77L611 48L698 79L785 49L873 49L960 48L960 151L873 151L785 151L698 151L611 151L524 151L436 151L349 151L262 151L175 151L87 151L0 151Z" fill="#a6b2c1"></path><path d="M0 89L87 69L175 80L262 93L349 70L436 91L524 93L611 86L698 76L785 85L873 95L960 90L960 151L873 151L785 151L698 151L611 151L524 151L436 151L349 151L262 151L175 151L87 151L0 151Z" fill="#6e7a8d"></path><path d="M0 119L87 102L175 94L262 118L349 102L436 97L524 103L611 94L698 101L785 116L873 107L960 112L960 151L873 151L785 151L698 151L611 151L524 151L436 151L349 151L262 151L175 151L87 151L0 151Z" fill="#3a475c"></path><path d="M0 124L87 130L175 119L262 133L349 133L436 132L524 126L611 133L698 132L785 119L873 127L960 118L960 151L873 151L785 151L698 151L611 151L524 151L436 151L349 151L262 151L175 151L87 151L0 151Z" fill="#0a192f"></path></svg>